{
  "asset": {
    "version": "2.0",
    "generator": "Cascade Solo Leveling UI"
  },
  "scene": 0,
  "scenes": [
    {
      "nodes": [0]
    }
  ],
  "nodes": [
    {
      "mesh": 0,
      "name": "ShadowMonarch",
      "translation": [0, 0, 0],
      "rotation": [0, 0, 0, 1],
      "scale": [1, 1, 1]
    }
  ],
  "meshes": [
    {
      "primitives": [
        {
          "attributes": {
            "POSITION": 0,
            "NORMAL": 1,
            "TEXCOORD_0": 2
          },
          "indices": 3,
          "material": 0
        }
      ],
      "name": "MonarchMesh"
    }
  ],
  "materials": [
    {
      "name": "MonarchMaterial",
      "pbrMetallicRoughness": {
        "baseColorFactor": [0.423529, 0.360784, 0.905882, 1],
        "metallicFactor": 0.5,
        "roughnessFactor": 0.3
      },
      "emissiveFactor": [0.2, 0.1, 0.8],
      "alphaMode": "BLEND"
    }
  ],
  "animations": [
    {
      "name": "arise",
      "channels": [
        {
          "sampler": 0,
          "target": {
            "node": 0,
            "path": "translation"
          }
        },
        {
          "sampler": 1,
          "target": {
            "node": 0,
            "path": "rotation"
          }
        }
      ],
      "samplers": [
        {
          "input": 4,
          "interpolation": "LINEAR",
          "output": 5
        },
        {
          "input": 4,
          "interpolation": "LINEAR",
          "output": 6
        }
      ]
    }
  ],
  "accessors": [
    {
      "bufferView": 0,
      "componentType": 5126,
      "count": 24,
      "type": "VEC3",
      "max": [1, 2, 1],
      "min": [-1, 0, -1]
    },
    {
      "bufferView": 1,
      "componentType": 5126,
      "count": 24,
      "type": "VEC3"
    },
    {
      "bufferView": 2,
      "componentType": 5126,
      "count": 24,
      "type": "VEC2"
    },
    {
      "bufferView": 3,
      "componentType": 5123,
      "count": 36,
      "type": "SCALAR"
    },
    {
      "bufferView": 4,
      "componentType": 5126,
      "count": 2,
      "type": "SCALAR",
      "max": [1.0],
      "min": [0.0]
    },
    {
      "bufferView": 5,
      "componentType": 5126,
      "count": 2,
      "type": "VEC3"
    },
    {
      "bufferView": 6,
      "componentType": 5126,
      "count": 2,
      "type": "VEC4"
    }
  ],
  "bufferViews": [
    {
      "buffer": 0,
      "byteLength": 288,
      "byteOffset": 0
    },
    {
      "buffer": 0,
      "byteLength": 288,
      "byteOffset": 288
    },
    {
      "buffer": 0,
      "byteLength": 192,
      "byteOffset": 576
    },
    {
      "buffer": 0,
      "byteLength": 72,
      "byteOffset": 768
    },
    {
      "buffer": 0,
      "byteLength": 8,
      "byteOffset": 840
    },
    {
      "buffer": 0,
      "byteLength": 24,
      "byteOffset": 848
    },
    {
      "buffer": 0,
      "byteLength": 32,
      "byteOffset": 872
    }
  ],
  "buffers": [
    {
      "byteLength": 904,
      "uri": "data:application/octet-stream;base64,"
    }
  ]
}
